# AST/ASF file generated using VICON BodyLanguage
# -----------------------------------------------
:version 1.10
:name VICON
:units
  mass 1.0
  length 0.45
  angle deg
:documentation
   .ast/.asf automatically generated from VICON data using
   VICON BodyBuilder and BodyLanguage model FoxedUp or BRILLIANT.MOD
:root
   order TX TY TZ RX RY RZ
   axis XYZ
   position 0 0 0  
   orientation 0 0 0 
:bonedata
  begin
     id 1 
     name lhipjoint
     direction 0.561145 -0.797705 0.220866 
     length 2.46425 
     axis 0 0 0  XYZ
  end
  begin
     id 2 
     name lfemur
     direction 0.34202 -0.939693 0  
     length 7.95556  
     axis 0 0 20  XYZ
    dof rx ry rz
    limits (-160.0 20.0)
           (-70.0 70.0)
           (-60.0 70.0)
  end
  begin
     id 3 
     name ltibia
     direction 0.34202 -0.939693 0   
     length 7.9832   
     axis 0 0 20   XYZ
    dof rx
    limits (-10.0 170.0)
  end
  begin
     id 4 
     name lfoot
     direction 0.0723927 -0.198897 0.977343   
     length 2.23085   
     axis -90 7.62852e-016 20   XYZ
    dof rx rz
    limits (-45.0 90.0)
           (-70.0 20.0)
  end
  begin
     id 5 
     name ltoes
     direction 1.53826e-011 -4.21988e-011 1   
     length 1.12127   
     axis -90 7.62852e-016 20   XYZ
    dof rx
    limits (-90.0 20.0)
  end
  begin
     id 6 
     name rhipjoint
     direction -0.610499 -0.763299 0.21134   
     length 2.57533  
     axis 0 0 0  XYZ 
  end
  begin
     id 7 
     name rfemur
     direction -0.34202 -0.939693 0   
     length 8.65257   
     axis 0 0 -20   XYZ
    dof rx ry rz
    limits (-160.0 20.0)
           (-70.0 70.0)
           (-70.0 60.0)
  end
  begin
     id 8 
     name rtibia
     direction -0.342021 -0.939692 0   
     length 7.37807   
     axis 0 0 -20   XYZ
    dof rx
    limits (-10.0 170.0)
 end
 begin
     id 9 
     name rfoot
     direction -0.0239304 -0.0543852 0.998233   
     length 1.87018  
     axis -90 -7.62852e-016 -20   XYZ
    dof rx rz
    limits (-45.0 90.0)
           (-20.0 70.0)
  end
  begin
     id 10 
     name rtoes
     direction -1.53584e-011 -4.2242e-011 1   
     length 0.951568   
     axis -90 -7.62852e-016 -20   XYZ
    dof rx
    limits (-90.0 20.0)
  end
  begin
     id 11 
     name lowerback
     direction 0.00322089 0.999033 0.0438587   
     length 2.07568   
     axis 0 0 0   XYZ
    dof rx ry rz
    limits (-20.0 45.0)
           (-30.0 30.0)
           (-30.0 30.0)
  end
  begin
     id 12 
     name upperback
     direction -0.00321932 0.999732 -0.0229403   
     length 2.06253   
     axis 0 0 0   XYZ
    dof rx ry rz
    limits (-20.0 45.0)
           (-30.0 30.0)
           (-30.0 30.0)
  end
  begin
     id 13 
     name thorax
     direction -0.00537537 0.998955 -0.0453918   
     length 2.06975   
     axis 0 0 0   XYZ
    dof rx ry rz
    limits (-20.0 45.0)
           (-30.0 30.0)
           (-30.0 30.0)
  end
  begin
     id 14 
     name lowerneck
     direction -0.00013604 0.994111 0.108363   
     length 1.50836   
     axis 0 0 0   XYZ
    dof rx ry rz
    limits (-20.0 45.0)
           (-30.0 30.0)
           (-30.0 30.0)
  end
  begin
     id 15 
     name upperneck
     direction 0.0397262 0.983859 -0.174482   
     length 1.53037   
     axis 0 0 0   XYZ
    dof rx ry rz
    limits (-20.0 45.0)
           (-30.0 30.0)
           (-30.0 30.0)
  end
  begin
     id 16
     name head
     direction 0.0109991 0.997082 -0.0755378  
     length 1.56928  
     axis 0 0 0   XYZ
    dof rx ry rz
    limits (-20.0 45.0)
           (-30.0 30.0)
           (-30.0 30.0)
  end
  begin
     id 17 
     name lclavicle
     direction 0.964749 0.254 -0.068874  
     length 3.26503  
     axis 0 0 0   XYZ
    dof ry rz
    limits (-20.0 10.0)
           (0.0 20.0)
  end
  begin
     id 18 
     name lhumerus
     direction 1 -4.48941e-011 -2.05079e-027   
     length 5.68236   
     axis 180 -30 -90   XYZ
    dof rx ry rz
    limits (-60.0 90.0)
           (-90.0 90.0)
           (-90.0 90.0)
  end
  begin
     id 19
     name lradius
     direction 1 -4.48956e-011 6.2882e-027   
     length 3.17112   
     axis 180 -30 -90   XYZ
    dof rx
    limits (-10.0 170.0)
  end
  begin
     id 20
     name lwrist
     direction 1 -4.49014e-011 1.73219e-026   
     length 1.58556   
     axis -1.04724e-014 90 90   XYZ
    dof ry
    limits (-180.0 0.0)
 end
  begin
     id 21 
     name lhand
     direction 1 -4.49312e-011 3.46438e-026   
     length 0.632691   
     axis -2.21057e-014 90 90   XYZ
    dof rx rz
    limits (-90.0 90.0)
           (-45.0 45.0)
  end
  begin
     id 22 
     name lfingers
     direction 1 -4.48894e-011 6.92876e-026   
     length 0.510091   
     axis -4.42114e-014 90 90   XYZ
    dof rx
    limits (0.0 90.0)
  end
  begin
     id 23
     name lthumb
     direction 0.707107 -6.34705e-011 0.707107   
     length 0.732392   
     axis -90 45 2.85299e-015   XYZ
    dof rx rz
    limits (-45.0 45.0)
           (-45.0 45.0)
  end
  begin
     id 24 
     name rclavicle
     direction -0.954374 0.280496 -0.102435   
     length 3.25419  
     axis 0 0 0   XYZ 
    dof ry rz
    limits (-10.0 20.0)
           (-20.0 0.0)
  end
  begin
     id 25 
     name rhumerus
     direction -1 -4.48994e-011 -1.07204e-017  
     length 5.8712   
     axis 180 30 90   XYZ
    dof rx ry rz
    limits (-90.0 60.0)
           (-90.0 90.0)
           (-90.0 90.0)
  end
  begin
     id 26 
     name rradius
     direction -1 -4.48972e-011 5.89292e-027   
     length 3.37589   
     axis 180 30 90   XYZ
    dof rx
    limits (-10.0 170.0)
  end
  begin
     id 27 
     name rwrist
     direction -1 -4.48942e-011 1.73219e-026   
     length 1.68794   
     axis -1.04724e-014 -90 -90   XYZ
    dof ry
    limits (-180.0 0.0)
  end
  begin
     id 28
     name rhand
     direction -1 -4.48514e-011 3.46438e-026   
     length 0.603257   
     axis -2.21057e-014 -90 -90   XYZ
    dof rx rz
    limits (-90.0 90.0)
           (-45.0 45.0)
  end
  begin
     id 29
     name rfingers
     direction -1 -4.50028e-011 6.92876e-026   
     length 0.486362   
     axis -4.42114e-014 -90 -90   XYZ
    dof rx
    limits (0.0 90.0)
  end
  begin
     id 30
     name rthumb
     direction -0.707107 -6.34926e-011 0.707107   
     length 0.698321   
     axis -90 -45 -2.85299e-015   XYZ
    dof rx rz
    limits (-45.0 45.0)
           (-45.0 45.0)
  end
:hierarchy
  begin
    root lhipjoint rhipjoint lowerback
    lhipjoint lfemur
    lfemur ltibia
    ltibia lfoot
    lfoot ltoes
    rhipjoint rfemur
    rfemur rtibia
    rtibia rfoot
    rfoot rtoes
    lowerback upperback
    upperback thorax
    thorax lowerneck lclavicle rclavicle
    lowerneck upperneck
    upperneck head
    lclavicle lhumerus
    lhumerus lradius
    lradius lwrist
    lwrist lhand lthumb
    lhand lfingers
    rclavicle rhumerus
    rhumerus rradius
    rradius rwrist
    rwrist rhand rthumb
    rhand rfingers
  end

#!OML:ASF I:\Segmentation\Patient Classification 1\Patient 1\Session 1\Patient1.ASF
:FULLY-SPECIFIED
:DEGREES
2576
root -9.59525 17.9706 2.75636 -290.829 -272.349 -1384.94
lowerback -11.1668 0.864097 -2.11273
upperback 1.43524 1.34663 1.40205
thorax 7.71956 0.533701 2.91694
lowerneck -16.512 -2.53766 -3.38536
upperneck 15.8942 -2.75282 0.919724
head 7.68114 -1.41021 0.546664
rclavicle -8.94531e-015 1.27222e-014
rhumerus -29.3703 -0.418035 -74.4251
rradius 42.5408
rwrist 11.6143
rhand -16.875 29.0129
rfingers 7.12502
rthumb 9.35594 -0.759491
lclavicle -8.94531e-015 1.27222e-014
lhumerus -34.5337 -6.43713 91.9334
lradius 33.8882
lwrist 20.6817
lhand -13.2266 36.2488
lfingers 7.12502
lthumb 12.8747 65.8317
rfemur -19.6693 4.7746 19.561
rtibia 36.2418
rfoot -7.90847 20.2456
rtoes 18.6196
lfemur -49.1423 -4.23339 -16.8952
ltibia 32.7706
lfoot -15.0952 7.35918
ltoes -16.2416
2577
root -9.53181 17.9641 2.74686 -295.629 -272.387 -1389.62
lowerback -11.0692 0.86781 -2.13747
upperback 1.48757 1.35594 1.3583
thorax 7.71969 0.53732 2.88431
lowerneck -16.9245 -2.50234 -3.44864
upperneck 16.1344 -2.69714 1.03493
head 7.83388 -1.3758 0.596328
rclavicle -9.14409e-015 5.56597e-015
rhumerus -29.0595 0.0162634 -74.6653
rradius 42.8409
rwrist 11.6977
rhand -16.7407 29.0548
rfingers 7.12502
rthumb 9.48558 -0.711702
lclavicle -9.14409e-015 5.56597e-015
lhumerus -34.4865 -6.44978 91.7951
lradius 33.895
lwrist 20.7476
lhand -13.1816 35.9483
lfingers 7.12502
lthumb 12.9181 65.5284
rfemur -19.3614 4.93972 19.5944
rtibia 36.2724
rfoot -8.06957 20.4264
rtoes 18.4815
lfemur -48.8905 -4.10029 -16.8551
ltibia 32.7795
lfoot -14.9829 7.20869
ltoes -16.4807
2578
root -9.46657 17.9478 2.73303 -298.832 -272.394 -1392.77
lowerback -11.025 0.913561 -2.07644
upperback 1.4111 1.41663 1.23516
thorax 7.61261 0.575197 2.72645
lowerneck -16.9587 -2.48528 -3.31398
upperneck 16.3265 -2.72013 1.10648
head 7.90308 -1.37069 0.594594
rclavicle 1.17283e-014 1.90833e-014
rhumerus -29.0537 0.366408 -74.9427
rradius 43.1319
rwrist 11.7069
rhand -16.8745 29.3435
rfingers 7.12502
rthumb 9.35648 -0.428852
lclavicle 1.17283e-014 1.90833e-014
lhumerus -34.7135 -6.74525 91.6802
lradius 34.0175
lwrist 20.8827
lhand -13.195 35.6487
lfingers 7.12502
lthumb 12.9052 65.2296
rfemur -19.0737 4.95699 19.6288
rtibia 36.3061
rfoot -8.10292 20.6618
rtoes 18.6129
lfemur -48.7303 -4.10592 -16.7835
ltibia 32.8139
lfoot -14.9834 7.13832
ltoes -16.8485
2579
root -9.39996 17.9296 2.71974 -300.949 -272.446 -1394.88
lowerback -11.1516 0.78245 -2.27908
upperback 1.507 1.26188 1.3719
thorax 7.79092 0.483186 2.96537
lowerneck -17.3065 -2.37635 -3.5382
upperneck 16.3823 -2.48726 1.03148
head 7.97954 -1.28167 0.63019
rclavicle -1.59028e-015 2.78299e-014
rhumerus -28.6437 1.19746 -74.9595
rradius 43.4536
rwrist 11.5214
rhand -17.1364 29.521
rfingers 7.12502
rthumb 9.1037 -0.262533
lclavicle -1.59028e-015 2.78299e-014
lhumerus -34.6012 -6.32606 91.788
lradius 34.1349
lwrist 20.8793
lhand -13.3432 35.7023
lfingers 7.12502
lthumb 12.7623 65.2922
rfemur -18.8169 4.84969 19.62
rtibia 36.3269
rfoot -8.07366 20.8784
rtoes 18.4053
lfemur -48.6291 -4.0107 -16.8407
ltibia 32.8836
lfoot -14.8731 7.102
ltoes -17.2544
2580
root -9.33001 17.9191 2.70897 -303.862 -272.556 -1397.81
lowerback -11.3007 0.723448 -2.49809
upperback 1.46703 1.21172 1.44271
thorax 7.8315 0.447171 3.15935
lowerneck -17.1904 -2.33335 -3.74582
upperneck 16.3858 -2.38386 1.06205
head 7.96142 -1.24263 0.687669
rclavicle -1.68967e-015 6.36111e-015
rhumerus -28.609 1.70058 -74.9597
rradius 43.8234
rwrist 11.4947
rhand -17.0746 29.478
rfingers 7.12502
rthumb 9.16337 -0.302869
lclavicle -1.68967e-015 6.36111e-015
lhumerus -34.7052 -6.12275 91.8596
lradius 34.1726
lwrist 20.8921
lhand -13.3982 35.9502
lfingers 7.12502
lthumb 12.7094 65.5434
rfemur -18.5908 4.83932 19.591
rtibia 36.3446
rfoot -7.9643 21.017
rtoes 18.4722
lfemur -48.5042 -3.87312 -16.9014
ltibia 32.9718
lfoot -14.702 7.14386
ltoes -17.8339
2581
root -9.25756 17.9092 2.6965 -307.365 -272.61 -1401.26
lowerback -11.3316 0.804476 -2.47492
upperback 1.48676 1.32608 1.31942
thorax 7.86537 0.505583 3.0362
lowerneck -17.3328 -2.37943 -3.45284
upperneck 16.4419 -2.4976 0.957228
head 8.00207 -1.28867 0.589934
rclavicle -2.5842e-015 1.11319e-014
rhumerus -28.5201 1.73652 -75.1235
rradius 44.0683
rwrist 11.5716
rhand -16.864 29.5406
rfingers 7.12502
rthumb 9.36655 -0.231314
lclavicle -2.5842e-015 1.11319e-014
lhumerus -34.6354 -6.50076 91.7415
lradius 34.0991
lwrist 20.9907
lhand -13.2549 36.0563
lfingers 7.12502
lthumb 12.8475 65.6409
rfemur -18.2907 4.91262 19.6295
rtibia 36.379
rfoot -7.95934 21.1454
rtoes 18.616
lfemur -48.2738 -3.72655 -16.9161
ltibia 33.0578
lfoot -14.6228 7.03244
ltoes -17.559
2582
root -9.18625 17.8946 2.67856 -311.496 -272.683 -1405.31
lowerback -11.2735 0.853182 -2.39075
upperback 1.47262 1.38425 1.23271
thorax 7.81652 0.540784 2.90446
lowerneck -17.186 -2.31905 -3.1608
upperneck 16.2594 -2.4566 0.753237
head 7.90778 -1.27171 0.481331
rclavicle 1.3418e-014 -4.37326e-015
rhumerus -28.4532 1.95202 -75.3018
rradius 44.2657
rwrist 11.6664
rhand -16.9099 29.728
rfingers 7.12502
rthumb 9.32227 -0.0458481
lclavicle 1.3418e-014 -4.37326e-015
lhumerus -34.739 -6.63214 91.6483
lradius 34.1224
lwrist 20.9998
lhand -13.0427 35.9057
lfingers 7.12502
lthumb 13.052 65.4774
rfemur -17.9647 4.91126 19.6693
rtibia 36.4226
rfoot -8.01527 21.4158
rtoes 18.3727
lfemur -47.9978 -3.62524 -16.9114
ltibia 33.1552
lfoot -14.6937 7.0022
ltoes -17.4329
2583
root -9.11281 17.8777 2.66014 -313.799 -272.817 -1407.52
lowerback -11.1987 0.869854 -2.40245
upperback 1.41073 1.41166 1.15975
thorax 7.70676 0.558286 2.83481
lowerneck -17.0899 -2.2483 -3.08902
upperneck 16.2801 -2.36137 0.656344
head 7.89387 -1.23161 0.449655
rclavicle 9.93923e-017 -1.94809e-014
rhumerus -28.5186 2.09191 -75.4235
rradius 44.5157
rwrist 11.8598
rhand -17.1182 29.8389
rfingers 7.12502
rthumb 9.12133 0.0561379
lclavicle 9.93923e-017 -1.94809e-014
lhumerus -34.9839 -6.64202 91.6025
lradius 34.2098
lwrist 20.9854
lhand -12.8096 36.1
lfingers 7.12502
lthumb 13.2768 65.6572
rfemur -17.6233 4.90937 19.6118
rtibia 36.4724
rfoot -7.96634 21.5965
rtoes 18.2011
lfemur -47.6906 -3.56653 -17.0132
ltibia 33.253
lfoot -14.6638 7.10142
ltoes -17.6991
2584
root -9.03501 17.8647 2.64693 -314.275 -272.982 -1407.88
lowerback -11.1647 0.856686 -2.60179
upperback 1.36161 1.42475 1.10252
thorax 7.6307 0.559477 2.88701
lowerneck -17.0983 -2.19471 -3.05128
upperneck 16.3721 -2.2798 0.573569
head 7.92299 -1.19867 0.425335
rclavicle -1.19271e-014 -7.95139e-015
rhumerus -28.6063 2.27098 -75.5021
rradius 44.7713
rwrist 11.9557
rhand -17.2001 29.8669
rfingers 7.12502
rthumb 9.04227 0.0807524
lclavicle -1.19271e-014 -7.95139e-015
lhumerus -35.1347 -6.60954 91.5601
lradius 34.1603
lwrist 20.9511
lhand -12.7212 36.2015
lfingers 7.12502
lthumb 13.3619 65.7531
rfemur -17.2384 5.08414 19.4925
rtibia 36.5203
rfoot -7.99449 21.5849
rtoes 17.9755
lfemur -47.2994 -3.43883 -17.2415
ltibia 33.3569
lfoot -14.549 7.07141
ltoes -17.0333
2585
root -8.95558 17.8509 2.63257 -316.707 -273.128 -1410.26
lowerback -11.2371 0.894352 -2.66485
upperback 1.36055 1.49235 1.00821
thorax 7.66742 0.590985 2.83617
lowerneck -17.065 -2.13449 -2.90472
upperneck 16.2277 -2.23088 0.535652
head 7.8657 -1.17034 0.395331
rclavicle 1.99779e-014 3.10104e-014
rhumerus -28.6234 2.38235 -75.6637
rradius 45.0574
rwrist 11.9129
rhand -17.0846 29.8741
rfingers 7.12502
rthumb 9.15375 0.0927177
lclavicle 1.99779e-014 3.10104e-014
lhumerus -35.1144 -6.68768 91.4238
lradius 34.0887
lwrist 20.906
lhand -12.7767 35.9085
lfingers 7.12502
lthumb 13.3085 65.4636
rfemur -16.9178 5.34418 19.472
rtibia 36.5708
rfoot -8.13692 21.605
rtoes 17.7594
lfemur -46.9664 -3.27829 -17.3478
ltibia 33.4709
lfoot -14.4536 7.06315
ltoes -15.9441
2586
root -8.8771 17.8354 2.61149 -320.749 -273.206 -1414.27
lowerback -11.3449 0.89353 -2.5593
upperback 1.38222 1.48172 0.976168
thorax 7.75631 0.588941 2.74415
lowerneck -17.0794 -2.05068 -2.7438
upperneck 16.1374 -2.12977 0.389175
head 7.83273 -1.1271 0.332524
rclavicle 7.05686e-015 -2.38542e-015
rhumerus -28.5991 2.6469 -75.8292
rradius 45.3935
rwrist 11.901
rhand -17.0896 29.7893
rfingers 7.12502
rthumb 9.14889 0.00777107
lclavicle 7.05686e-015 -2.38542e-015
lhumerus -35.0305 -6.65266 91.3003
lradius 34.0161
lwrist 20.921
lhand -12.9072 35.8276
lfingers 7.12502
lthumb 13.1827 65.3908
rfemur -16.616 5.37738 19.56
rtibia 36.6226
rfoot -8.10139 21.734
rtoes 18.0059
lfemur -46.6693 -3.07132 -17.3682
ltibia 33.5796
lfoot -14.3304 7.16242
ltoes -15.5632
2587
root -8.80042 17.8257 2.58688 -323.977 -273.368 -1417.53
lowerback -11.5182 0.837557 -2.55754
upperback 1.39696 1.40808 1.01873
thorax 7.8753 0.54955 2.78066
lowerneck -17.2542 -1.95042 -2.76729
upperneck 16.2218 -1.95096 0.237921
head 7.88732 -1.05892 0.30538
rclavicle 2.68359e-015 1.19271e-015
rhumerus -28.4981 3.11512 -75.9069
rradius 45.6636
rwrist 11.8463
rhand -17.2047 29.922
rfingers 7.12502
rthumb 9.03782 0.135631
lclavicle 2.68359e-015 1.19271e-015
lhumerus -34.9077 -6.30793 91.2398
lradius 33.8637
lwrist 20.8309
lhand -12.9365 35.7828
lfingers 7.12502
lthumb 13.1544 65.3478
rfemur -16.4155 5.26401 19.534
rtibia 36.6437
rfoot -7.82262 21.8795
rtoes 18.0984
lfemur -46.4343 -2.84863 -17.4721
ltibia 33.6903
lfoot -14.1658 7.42216
ltoes -15.6964
2588
root -8.72109 17.8167 2.56634 -325.517 -273.546 -1419.13
lowerback -11.6766 0.790678 -2.68743
upperback 1.39602 1.36599 1.04855
thorax 7.96456 0.520737 2.8828
lowerneck -17.1536 -1.85633 -3.10432
upperneck 15.9807 -1.79345 0.499768
head 7.79322 -0.978778 0.467033
rclavicle -1.91827e-014 -1.86858e-014
rhumerus -28.432 3.39739 -75.9313
rradius 45.9237
rwrist 11.7057
rhand -16.834 30.2072
rfingers 7.12502
rthumb 9.39548 0.436576
lclavicle -1.91827e-014 -1.86858e-014
lhumerus -34.7912 -5.8357 91.1624
lradius 33.7168
lwrist 20.5611
lhand -12.7192 35.731
lfingers 7.12502
lthumb 13.3638 65.2824
rfemur -16.2242 5.39211 19.4376
rtibia 36.6152
rfoot -7.72145 21.8212
rtoes 17.7663
lfemur -46.278 -2.73104 -17.6143
ltibia 33.7899
lfoot -13.8332 7.87313
ltoes -15.842
